<svg id="Capa_1" data-name="Capa 1" xmlns="http://www.w3.org/2000/svg" viewBox="0 0 666.66 436"><defs><style>.cls-1{fill:#51719e;}.cls-2{fill:#fff;}</style></defs><title>Carteles</title><rect class="cls-1" x="-1.01" width="666.66" height="436"/><path class="cls-2" d="M73.58,269.16c-.45,4.2-2,7.41-4.5,9.64s-5.94,3.34-10.17,3.34a14,14,0,0,1-7.84-2.22,14.4,14.4,0,0,1-5.27-6.28,22.16,22.16,0,0,1-1.89-9.3v-5.17a22.63,22.63,0,0,1,1.86-9.42,14.29,14.29,0,0,1,5.35-6.34,14.67,14.67,0,0,1,8-2.23q6.41,0,10.12,3.45a14.47,14.47,0,0,1,4.31,9.56H70.19Q68.93,244,59.15,244a10.45,10.45,0,0,0-8.63,4.05q-3.23,4.06-3.22,11.21v4.88q0,6.9,3.14,11a10.09,10.09,0,0,0,8.47,4.11c3.52,0,6.18-.85,8-2.53s2.89-4.22,3.31-7.6Z"/><path class="cls-2" d="M103.28,270.39H85.19l-4.11,11.2H77.55l15.08-39.86h3.21l15.08,39.86h-3.5Zm-17-2.85h16l-8-21.7Z"/><path class="cls-2" d="M121.24,241.73l14.7,35.18,14.76-35.18h4.49v39.86h-3.37V264.23l.27-17.79-14.83,35.15h-2.6l-14.79-35,.28,17.54v17.47h-3.37V241.73Z"/><path class="cls-2" d="M168.66,265.35v16.24h-3.37V241.73h13.58q6.21,0,9.81,3.18a11,11,0,0,1,3.6,8.73q0,5.61-3.46,8.66t-10,3.05Zm0-2.84h10.21q4.89,0,7.47-2.33a8.35,8.35,0,0,0,2.57-6.5,8.71,8.71,0,0,0-2.56-6.6c-1.7-1.63-4.13-2.47-7.26-2.5H168.66Z"/><path class="cls-2" d="M217.55,270.39h-18.1l-4.1,11.2h-3.53l15.08-39.86h3.2l15.09,39.86h-3.51Zm-17.06-2.85h16l-8-21.7Z"/><path class="cls-2" d="M260.72,281.59h-3.37l-22.91-34.11v34.11H231V241.73h3.4l22.94,34.14V241.73h3.34Zm-5.5-49.5a5.78,5.78,0,0,1-1.55,4.21,5.06,5.06,0,0,1-3.79,1.6,6.66,6.66,0,0,1-4.07-1.51,6.13,6.13,0,0,0-3.54-1.5,3,3,0,0,0-2.15.84,3.18,3.18,0,0,0-.86,2.39l-2.47-.09a5.93,5.93,0,0,1,1.49-4.14,5.48,5.48,0,0,1,6.1-1.17,14.42,14.42,0,0,1,1.75,1,17.38,17.38,0,0,0,1.65,1,4,4,0,0,0,2,.47,2.91,2.91,0,0,0,2.15-.9,3.36,3.36,0,0,0,.89-2.44Z"/><path class="cls-2" d="M292.86,270.39h-18.1l-4.1,11.2h-3.54l15.09-39.86h3.2l15.09,39.86H297Zm-17.06-2.85h16l-8-21.7Z"/><path class="cls-2" d="M323.35,265.35v16.24H320V241.73h13.57q6.22,0,9.82,3.18a11,11,0,0,1,3.6,8.73q0,5.61-3.47,8.66t-10,3.05Zm0-2.84h10.21q4.9,0,7.48-2.33a8.35,8.35,0,0,0,2.57-6.5,8.71,8.71,0,0,0-2.56-6.6c-1.71-1.63-4.13-2.47-7.27-2.5H323.35Z"/><path class="cls-2" d="M382,241.73v27.21a13.7,13.7,0,0,1-1.78,7,11.53,11.53,0,0,1-4.94,4.58,16,16,0,0,1-7.32,1.61q-6.3,0-10.09-3.44c-2.53-2.29-3.83-5.46-3.93-9.51V241.73h3.34v27q0,5,2.88,7.82a12.3,12.3,0,0,0,15.59,0,10.38,10.38,0,0,0,2.86-7.78v-27Z"/><path class="cls-2" d="M391.35,281.59V241.73h11.78q6.4,0,9.71,2.64c2.21,1.77,3.32,4.36,3.32,7.8a8.86,8.86,0,0,1-1.69,5.38,9.17,9.17,0,0,1-4.61,3.27,9.65,9.65,0,0,1,7.72,9.55,10.37,10.37,0,0,1-3.41,8.25q-3.41,3-9.49,3Zm3.37-22h9.2a10.37,10.37,0,0,0,6.53-2,6.79,6.79,0,0,0,2.31-5.56c0-2.56-.8-4.44-2.39-5.66s-4-1.82-7.24-1.82h-8.41Zm0,2.84v16.29h10.1a10.08,10.08,0,0,0,6.86-2.2,7.66,7.66,0,0,0,2.53-6.11,7.4,7.4,0,0,0-2.42-5.83,9.76,9.76,0,0,0-6.69-2.15Z"/><path class="cls-2" d="M429.1,278.74h19.69v2.85H425.71V241.73h3.39Z"/><path class="cls-2" d="M459.35,281.59H456V241.73h3.36Z"/><path class="cls-2" d="M498.39,269.16q-.69,6.3-4.5,9.64t-10.17,3.34a14.08,14.08,0,0,1-7.85-2.22,14.47,14.47,0,0,1-5.27-6.28,22.31,22.31,0,0,1-1.88-9.3v-5.17a22.63,22.63,0,0,1,1.86-9.42,14.29,14.29,0,0,1,5.35-6.34,14.64,14.64,0,0,1,8-2.23q6.41,0,10.12,3.45a14.47,14.47,0,0,1,4.31,9.56H495Q493.74,244,484,244a10.45,10.45,0,0,0-8.63,4.05q-3.22,4.06-3.22,11.21v4.88q0,6.9,3.13,11a10.11,10.11,0,0,0,8.48,4.11c3.52,0,6.17-.85,8-2.53s2.9-4.22,3.32-7.6Z"/><path class="cls-2" d="M510.68,281.59h-3.37V241.73h3.37Z"/><path class="cls-2" d="M521.5,281.59V241.73h11.14a17.29,17.29,0,0,1,8.78,2.23,15.41,15.41,0,0,1,6.07,6.39,20.15,20.15,0,0,1,2.17,9.47v3.67A20.12,20.12,0,0,1,547.5,273a15.31,15.31,0,0,1-6.09,6.38,17.81,17.81,0,0,1-9,2.25Zm3.36-37v34.16h7.56a13,13,0,0,0,10.1-4.18q3.81-4.17,3.8-11.3v-3.51q0-6.87-3.75-11a12.74,12.74,0,0,0-9.88-4.16Z"/><path class="cls-2" d="M579.15,270.39h-18.1l-4.1,11.2h-3.54l15.09-39.86h3.2l15.09,39.86h-3.51Zm-17.06-2.85h16l-8-21.7Z"/><path class="cls-2" d="M592.64,281.59V241.73h11.15a17.29,17.29,0,0,1,8.78,2.23,15.48,15.48,0,0,1,6.07,6.39,20.15,20.15,0,0,1,2.17,9.47v3.67a20.12,20.12,0,0,1-2.16,9.47,15.31,15.31,0,0,1-6.09,6.38,17.84,17.84,0,0,1-9,2.25Zm3.37-37v34.16h7.56a13,13,0,0,0,10.1-4.18q3.8-4.17,3.8-11.3v-3.51q0-6.87-3.75-11a12.74,12.74,0,0,0-9.88-4.16Z"/><path class="cls-2" d="M136.22,344.13a11.3,11.3,0,0,1-5.49,3.89,23.78,23.78,0,0,1-8.37,1.39,15.5,15.5,0,0,1-8.32-2.24,15.1,15.1,0,0,1-5.64-6.35,21.6,21.6,0,0,1-2-9.42v-5q0-8.3,4.19-13.1a14.17,14.17,0,0,1,11.25-4.8q6.15,0,9.91,3.13a13,13,0,0,1,4.46,8.64h-3.37a10.32,10.32,0,0,0-3.57-6.66,11.51,11.51,0,0,0-7.41-2.26,10.82,10.82,0,0,0-8.84,4q-3.25,4-3.26,11.2v4.72a19.71,19.71,0,0,0,1.55,8,12.24,12.24,0,0,0,4.44,5.41,11.67,11.67,0,0,0,6.63,1.92,18.57,18.57,0,0,0,7.48-1.37,8.2,8.2,0,0,0,3-2.11V332.8h-10.7V330h14.07Z"/><path class="cls-2" d="M175.23,331.1a23,23,0,0,1-1.91,9.66,14.55,14.55,0,0,1-5.43,6.41,14.83,14.83,0,0,1-8.16,2.24,14.17,14.17,0,0,1-11.28-5q-4.29-5-4.29-13.49v-4.1a22.84,22.84,0,0,1,1.93-9.65,14.34,14.34,0,0,1,13.59-8.72,14.86,14.86,0,0,1,8.11,2.22,14.58,14.58,0,0,1,5.44,6.27,22.59,22.59,0,0,1,2,9.38Zm-3.37-4.33q0-7.2-3.26-11.27a11.72,11.72,0,0,0-17.78,0q-3.3,4.1-3.3,11.43v4.16q0,7.09,3.29,11.24a11.74,11.74,0,0,0,17.85.05q3.19-4.09,3.2-11.4Z"/><path class="cls-2" d="M213.17,331.1a23.12,23.12,0,0,1-1.9,9.66,14.5,14.5,0,0,1-5.44,6.41,14.83,14.83,0,0,1-8.16,2.24,14.14,14.14,0,0,1-11.27-5q-4.31-5-4.3-13.49v-4.1a22.84,22.84,0,0,1,1.93-9.65,14.34,14.34,0,0,1,13.59-8.72,14.9,14.9,0,0,1,8.12,2.22,14.63,14.63,0,0,1,5.43,6.27,22.59,22.59,0,0,1,2,9.38Zm-3.37-4.33q0-7.2-3.26-11.27a11.72,11.72,0,0,0-17.78,0q-3.3,4.1-3.29,11.43v4.16q0,7.09,3.28,11.24a11.74,11.74,0,0,0,17.85.05q3.19-4.09,3.2-11.4Z"/><path class="cls-2" d="M250.43,344.13a11.3,11.3,0,0,1-5.49,3.89,23.78,23.78,0,0,1-8.37,1.39,15.5,15.5,0,0,1-8.32-2.24,15,15,0,0,1-5.64-6.35,21.46,21.46,0,0,1-2-9.42v-5q0-8.3,4.19-13.1a14.17,14.17,0,0,1,11.25-4.8q6.15,0,9.91,3.13a13,13,0,0,1,4.46,8.64H247a10.32,10.32,0,0,0-3.57-6.66,11.51,11.51,0,0,0-7.41-2.26,10.82,10.82,0,0,0-8.84,4q-3.26,4-3.26,11.2v4.72a19.71,19.71,0,0,0,1.55,8,12.24,12.24,0,0,0,4.44,5.41,11.67,11.67,0,0,0,6.63,1.92,18.57,18.57,0,0,0,7.48-1.37,8.2,8.2,0,0,0,3-2.11V332.8H236.35V330h14.08Z"/><path class="cls-2" d="M263.37,346h19.69v2.85H260V309h3.39Z"/><path class="cls-2" d="M311.53,329.76H292.88V346h21.44v2.85h-24.8V309h24.66v2.84h-21.3v15.06h18.65Z"/><path class="cls-2" d="M356.56,337.67H338.47l-4.11,11.2h-3.53L345.91,309h3.2l15.09,39.86h-3.51Zm-17.05-2.85h16l-8-21.71Z"/><path class="cls-2" d="M370.06,348.87V309H381.2a17.29,17.29,0,0,1,8.78,2.23,15.41,15.41,0,0,1,6.07,6.39,20.12,20.12,0,0,1,2.17,9.47v3.67a20.12,20.12,0,0,1-2.16,9.47,15.37,15.37,0,0,1-6.09,6.38,17.81,17.81,0,0,1-9,2.25Zm3.36-37V346H381a13,13,0,0,0,10.1-4.18q3.81-4.18,3.8-11.3V327q0-6.87-3.75-11a12.78,12.78,0,0,0-9.88-4.17Z"/><path class="cls-2" d="M414.13,338.11l1.23,6.18,1.51-5.91L425.52,309h3l8.54,29.37,1.48,6,1.31-6.24,7.2-29.1h3.45l-10.21,39.86H437.1l-9-31.19-1-3.94-1,3.94-9.26,31.19h-3.23L403.4,309h3.45Z"/><path class="cls-2" d="M486.48,331.1a23,23,0,0,1-1.9,9.66,14.55,14.55,0,0,1-5.43,6.41,14.88,14.88,0,0,1-8.16,2.24,14.14,14.14,0,0,1-11.28-5q-4.31-5-4.3-13.49v-4.1a22.84,22.84,0,0,1,1.93-9.65,15.25,15.25,0,0,1,21.71-6.5,14.56,14.56,0,0,1,5.43,6.27,22.43,22.43,0,0,1,2,9.38Zm-3.36-4.33q0-7.2-3.26-11.27a11.72,11.72,0,0,0-17.78,0q-3.3,4.1-3.3,11.43v4.16q0,7.09,3.28,11.24a10.8,10.8,0,0,0,8.93,4.14,10.68,10.68,0,0,0,8.92-4.09q3.21-4.09,3.21-11.4Z"/><path class="cls-2" d="M509.86,332.25H498.28v16.62h-3.39V309h12.95q6.38,0,10,3.09a11.77,11.77,0,0,1,1.34,15.39,11.5,11.5,0,0,1-6,4.05l10,17v.36H519.5Zm-11.58-2.85H508.6a9.57,9.57,0,0,0,6.82-2.41,9.13,9.13,0,0,0-.11-12.81q-2.68-2.32-7.53-2.33h-9.5Z"/><path class="cls-2" d="M530.56,348.87V309H541.7a17.33,17.33,0,0,1,8.79,2.23,15.45,15.45,0,0,1,6.06,6.39,20.13,20.13,0,0,1,2.18,9.47v3.67a20.13,20.13,0,0,1-2.17,9.47,15.37,15.37,0,0,1-6.09,6.38,17.81,17.81,0,0,1-9,2.25Zm3.36-37V346h7.56a13,13,0,0,0,10.1-4.18q3.81-4.18,3.81-11.3V327q0-6.87-3.76-11a12.78,12.78,0,0,0-9.88-4.17Z"/><path class="cls-2" d="M376.85,98.77c-44.26,0-80.14,26.35-80.14,58.86,0,13.15,5.87,25.29,15.78,35.08-5.12,9.48-16.65,14.71-16.65,14.71,16.25,3.94,25.51.11,30.53-4.07,13.78,8.22,31.35,13.14,50.48,13.14,44.26,0,80.14-26.35,80.14-58.86S421.11,98.77,376.85,98.77Z"/><path class="cls-2" d="M247.23,136.74c21.86,0,39.58,13,39.58,29.07,0,6.49-2.9,12.48-7.79,17.32,2.53,4.68,8.22,7.27,8.22,7.27-8,1.94-12.6,0-15.08-2a49,49,0,0,1-24.93,6.49c-21.86,0-39.58-13-39.58-29.07S225.37,136.74,247.23,136.74Z"/></svg>