<svg id="Capa_1" data-name="Capa 1" xmlns="http://www.w3.org/2000/svg" viewBox="0 0 666.66 436"><defs><style>.cls-1{fill:#51719e;}.cls-2{fill:#fff;}</style></defs><title>Carteles</title><rect class="cls-1" x="-0.02" y="-0.51" width="666.66" height="436"/><path class="cls-2" d="M119.42,280.17V240.32h11.15a17.29,17.29,0,0,1,8.78,2.23,15.35,15.35,0,0,1,6.07,6.39,20.12,20.12,0,0,1,2.17,9.47v3.67a20.15,20.15,0,0,1-2.16,9.47,15.37,15.37,0,0,1-6.09,6.38,17.83,17.83,0,0,1-9,2.24Zm3.37-37v34.17h7.56a13,13,0,0,0,10.1-4.18q3.81-4.18,3.8-11.3v-3.51c0-4.58-1.25-8.26-3.75-11a12.78,12.78,0,0,0-9.88-4.17Z"/><path class="cls-2" d="M160.24,280.17h-3.37V240.32h3.37Z"/><path class="cls-2" d="M193.61,270.37a6.46,6.46,0,0,0-2.32-5.24c-1.56-1.29-4.39-2.51-8.52-3.67a29.88,29.88,0,0,1-9-3.79,9.2,9.2,0,0,1-.29-15,15.44,15.44,0,0,1,9.62-2.86,16,16,0,0,1,7.11,1.53,11.65,11.65,0,0,1,4.86,4.27,11.23,11.23,0,0,1,1.72,6.11h-3.39a8.4,8.4,0,0,0-2.8-6.58,10.84,10.84,0,0,0-7.5-2.48,11.82,11.82,0,0,0-7.28,2,6.36,6.36,0,0,0-2.71,5.33,6,6,0,0,0,2.44,5,22.53,22.53,0,0,0,7.8,3.39,36.62,36.62,0,0,1,8.13,3,11.6,11.6,0,0,1,4.16,3.76,9.47,9.47,0,0,1,1.4,5.18,9,9,0,0,1-3.77,7.55q-3.77,2.85-9.92,2.85a19.48,19.48,0,0,1-7.73-1.5,11.8,11.8,0,0,1-5.34-4.22,10.84,10.84,0,0,1-1.82-6.21h3.36a8,8,0,0,0,3.15,6.65,13.35,13.35,0,0,0,8.38,2.43,12.4,12.4,0,0,0,7.47-2.05A6.42,6.42,0,0,0,193.61,270.37Z"/><path class="cls-2" d="M226.27,261.07H207.63v16.26h21.43v2.84h-24.8V240.32h24.67v2.84h-21.3v15.06h18.64Z"/><path class="cls-2" d="M265.83,280.17h-3.37l-22.91-34.11v34.11h-3.4V240.32h3.4l22.94,34.13V240.32h3.34Zm-5.5-49.49a5.8,5.8,0,0,1-1.55,4.21,5.09,5.09,0,0,1-3.79,1.59,6.7,6.7,0,0,1-4.07-1.5,6.09,6.09,0,0,0-3.54-1.51,2.92,2.92,0,0,0-2.15.85,3.17,3.17,0,0,0-.86,2.38l-2.47-.08a5.93,5.93,0,0,1,1.49-4.14,5.42,5.42,0,0,1,6.09-1.17,14.55,14.55,0,0,1,1.76,1c.54.38,1.1.73,1.65,1a4,4,0,0,0,2,.46A2.91,2.91,0,0,0,257,233a3.32,3.32,0,0,0,.89-2.43Z"/><path class="cls-2" d="M305.41,262.41a23,23,0,0,1-1.9,9.66,14.6,14.6,0,0,1-5.43,6.41,15,15,0,0,1-8.16,2.24,14.14,14.14,0,0,1-11.28-5q-4.31-5-4.3-13.49v-4.1a23,23,0,0,1,1.93-9.65A15.25,15.25,0,0,1,298,242a14.41,14.41,0,0,1,5.43,6.26,22.48,22.48,0,0,1,2,9.39ZM302,258.08q0-7.2-3.25-11.28a11.71,11.71,0,0,0-17.78,0q-3.3,4.1-3.3,11.43v4.16q0,7.08,3.28,11.23a11.73,11.73,0,0,0,17.85.06q3.21-4.09,3.2-11.4Z"/><path class="cls-2" d="M356.3,275.44a11.32,11.32,0,0,1-5.49,3.89,23.72,23.72,0,0,1-8.36,1.39,15.59,15.59,0,0,1-8.32-2.24,15,15,0,0,1-5.64-6.35,21.6,21.6,0,0,1-2-9.42v-5q0-8.3,4.19-13.1a14.18,14.18,0,0,1,11.25-4.8q6.17,0,9.91,3.13a13,13,0,0,1,4.47,8.64h-3.37a10.36,10.36,0,0,0-3.57-6.66,11.51,11.51,0,0,0-7.41-2.26,10.82,10.82,0,0,0-8.84,4q-3.25,4-3.26,11.2v4.71a19.73,19.73,0,0,0,1.55,8.05,12.34,12.34,0,0,0,4.43,5.41,11.72,11.72,0,0,0,6.64,1.91,18.56,18.56,0,0,0,7.47-1.36,8.25,8.25,0,0,0,3-2.11V264.1H342.23v-2.84H356.3Z"/><path class="cls-2" d="M380.75,263.56H369.17v16.61h-3.4V240.32h13q6.39,0,10,3.09t3.58,8.64A10.76,10.76,0,0,1,390,258.8a11.5,11.5,0,0,1-6,4.05l10,17v.35h-3.59Zm-11.58-2.85h10.32a9.57,9.57,0,0,0,6.82-2.41,9.13,9.13,0,0,0-.11-12.81q-2.68-2.33-7.53-2.33h-9.5Z"/><path class="cls-2" d="M423,269H404.87l-4.11,11.19h-3.53l15.08-39.85h3.21l15.08,39.85h-3.51Zm-17-2.85h16l-8-21.71Zm11.36-36.63h4l-6.33,7.67-2.87,0Z"/><path class="cls-2" d="M458.41,261.53H439.82v18.64h-3.36V240.32h24.69v2.84H439.82v15.52h18.59Z"/><path class="cls-2" d="M472.1,280.17h-3.37V240.32h3.37Z"/><path class="cls-2" d="M511.14,267.75c-.46,4.19-2,7.41-4.51,9.63s-5.93,3.34-10.17,3.34a14,14,0,0,1-7.84-2.22,14.41,14.41,0,0,1-5.27-6.28,22.43,22.43,0,0,1-1.89-9.29v-5.18a22.55,22.55,0,0,1,1.86-9.41,14.31,14.31,0,0,1,5.36-6.34,14.54,14.54,0,0,1,8-2.23q6.41,0,10.12,3.45a14.45,14.45,0,0,1,4.31,9.55h-3.4q-1.26-10.16-11-10.15a10.48,10.48,0,0,0-8.64,4q-3.21,4.05-3.21,11.21v4.87c0,4.6,1,8.28,3.13,11a10.1,10.1,0,0,0,8.47,4.11c3.53,0,6.18-.84,8-2.53s2.89-4.22,3.31-7.59Z"/><path class="cls-2" d="M548.78,262.41a23.12,23.12,0,0,1-1.9,9.66,14.56,14.56,0,0,1-5.44,6.41,14.91,14.91,0,0,1-8.16,2.24,14.17,14.17,0,0,1-11.28-5q-4.29-5-4.29-13.49v-4.1a22.81,22.81,0,0,1,1.93-9.65,14.34,14.34,0,0,1,13.59-8.72,14.92,14.92,0,0,1,8.12,2.22,14.54,14.54,0,0,1,5.43,6.26,22.63,22.63,0,0,1,2,9.39Zm-3.37-4.33q0-7.2-3.26-11.28a11.71,11.71,0,0,0-17.78,0q-3.3,4.1-3.3,11.43v4.16q0,7.08,3.29,11.23a11.73,11.73,0,0,0,17.85.06q3.19-4.09,3.2-11.4Z"/><path class="cls-2" d="M301,212.62l87.44-87.44L394,102.13l-23,5.49-87.44,87.44a1.63,1.63,0,0,0-2.14.14h0a1.63,1.63,0,0,0-.14,2.14l-4.59,4.58a3.79,3.79,0,0,0-.06,5.34l12.29,12.28a3.77,3.77,0,0,0,5.33-.06l4.59-4.58a1.61,1.61,0,0,0,2.13-.15h0A1.61,1.61,0,0,0,301,212.62Z"/><path class="cls-2" d="M311.51,130.93c-3.06-2.93-5.4-3.62-6.89-3.64a.56.56,0,0,0-.09-.6.64.64,0,0,0-.88.09l0,0-9.56-8.43a.56.56,0,0,0,0-.76l-.06-.06a.58.58,0,0,0-.81.08l-.23.23c.1-4.58-2.86-11.63-20.35-15,3.42,17.48,10.47,20.44,15,20.34l-.29.3a.58.58,0,0,0-.08.8l.07.07a.55.55,0,0,0,.73,0l8.5,9.49h0a.63.63,0,0,0-.09.88.54.54,0,0,0,.6.09c0,1.5.71,3.83,3.63,6.9,5.4,5.64,86.82,83,89.78,79C394.49,217.74,317.16,136.32,311.51,130.93Z"/></svg>