<svg id="Capa_1" data-name="Capa 1" xmlns="http://www.w3.org/2000/svg" viewBox="0 0 39 38"><defs><style>.cls-1{fill:#354986;}.cls-2{fill:#fff;fill-rule:evenodd;}</style></defs><title>botones</title><path class="cls-1" d="M1.38,19A18.13,18.13,0,1,1,19.5,37.13,18.13,18.13,0,0,1,1.38,19Z"/><path class="cls-2" d="M27.44,7.45H11.56A3.61,3.61,0,0,0,8,11.06V26.94a3.61,3.61,0,0,0,3.61,3.61H27.44a3.61,3.61,0,0,0,3.61-3.61V11.06A3.61,3.61,0,0,0,27.44,7.45Zm-3,3.19a.65.65,0,0,1,.65-.65h2.79a.65.65,0,0,1,.64.65v2.79a.64.64,0,0,1-.64.64H25.09a.65.65,0,0,1-.65-.64Zm-9.2,6.69a4.58,4.58,0,0,1,8.52,0A4.63,4.63,0,0,1,24.07,19a4.57,4.57,0,1,1-9.14,0A4.63,4.63,0,0,1,15.24,17.33ZM28.6,26.94a1.17,1.17,0,0,1-1.16,1.17H11.56a1.17,1.17,0,0,1-1.16-1.17V17.33h2.28a7.13,7.13,0,0,0-.2,1.67,7,7,0,0,0,14,0,7.13,7.13,0,0,0-.2-1.67H28.6Z"/></svg>