<svg id="Capa_1" data-name="Capa 1" xmlns="http://www.w3.org/2000/svg" viewBox="0 0 39 38"><defs><style>.cls-1{fill:#5477a9;}.cls-2{fill:#f1f2f2;}</style></defs><title>botones</title><path class="cls-1" d="M1.38,19A18.12,18.12,0,1,1,19.5,37.13,18.13,18.13,0,0,1,1.38,19Z"/><path class="cls-2" d="M30.69,12.06a9.06,9.06,0,0,1-2.64.72,4.53,4.53,0,0,0,2-2.54,9.22,9.22,0,0,1-2.92,1.12,4.59,4.59,0,0,0-7.94,3.14,4.42,4.42,0,0,0,.12,1,13,13,0,0,1-9.46-4.79,4.6,4.6,0,0,0,1.42,6.13,4.59,4.59,0,0,1-2.08-.58v.06a4.59,4.59,0,0,0,3.68,4.5,4.37,4.37,0,0,1-1.21.16,4.91,4.91,0,0,1-.86-.08,4.6,4.6,0,0,0,4.29,3.19,9.21,9.21,0,0,1-5.7,2A10,10,0,0,1,8.31,26a13.06,13.06,0,0,0,20.1-11c0-.2,0-.4,0-.59a9.6,9.6,0,0,0,2.29-2.38Zm0,0"/></svg>